<svg xmlns="http://www.w3.org/2000/svg" xmlns:xlink="http://www.w3.org/1999/xlink" viewBox="0,0,256,256" width="16px" height="16px" fill-rule="nonzero"><g fill="none" fill-rule="nonzero" stroke="none" stroke-width="1" stroke-linecap="butt" stroke-linejoin="miter" stroke-miterlimit="10" stroke-dasharray="" stroke-dashoffset="0" font-family="none" font-weight="none" font-size="none" text-anchor="none" style="mix-blend-mode: normal"><g transform="scale(4,4)"><path d="M23.24,4.94h28.76c1.65685,0 3,1.34315 3,3v48c0,1.65685 -1.34315,3 -3,3h-38c-1.65685,0 -3,-1.34315 -3,-3v-38.76c0.0007,-0.79538 0.31723,-1.55793 0.88,-2.12l9.24,-9.24c0.56207,-0.56277 1.32462,-0.8793 2.12,-0.88z" fill="#faefde"></path><path d="M11,59l-0.15,-9.46l43.49,-43.48l0.66,22.94l-30,30zM10.85,39.15l34.21,-34.21l5.75,0.25l-39.81,39.81zM10.85,33.15l28.15,-28.15h3l-31.15,31.15z" fill="#fff7f0"></path><path d="M45.5,13l1.24,2.26l2.26,1.24l-2.26,1.24l-1.24,2.26l-1.24,-2.26l-2.26,-1.24l2.26,-1.24zM30.42,11l0.85,1.56l1.57,0.86l-1.57,0.85l-0.85,1.57l-0.86,-1.57l-1.56,-0.85l1.56,-0.86zM16.65,42l0.58,1.06l1.07,0.59l-1.07,0.58l-0.58,1.07l-0.58,-1.07l-1.07,-0.58l1.07,-0.59z" fill="#ffffff"></path><path d="M23,5v12h-12z" fill="#bbdef9"></path><path d="M53,4h-29.34c-1.32699,-0.00237 -2.60049,0.52286 -3.54,1.46l-8.66,8.66c-0.93714,0.93951 -1.46237,2.21301 -1.46,3.54v39.34c0,1.65685 1.34315,3 3,3h40c1.65685,0 3,-1.34315 3,-3v-50c0,-1.65685 -1.34315,-3 -3,-3zM21.54,6.88c0.14032,-0.14164 0.29442,-0.26893 0.46,-0.38v8.5c0,0.55228 -0.44772,1 -1,1h-8.5c0.11107,-0.16558 0.23836,-0.31968 0.38,-0.46zM54,57c0,0.55228 -0.44772,1 -1,1h-40c-0.55228,0 -1,-0.44772 -1,-1v-39h9c1.65685,0 3,-1.34315 3,-3v-9h29c0.55228,0 1,0.44772 1,1z" fill="#8d6c9f"></path><path d="M45,22h-4c-0.55228,0 -1,0.44772 -1,1c0,0.55228 0.44772,1 1,1h4c0.55228,0 1,-0.44772 1,-1c0,-0.55228 -0.44772,-1 -1,-1zM21,24h16c0.55228,0 1,-0.44772 1,-1c0,-0.55228 -0.44772,-1 -1,-1h-16c-0.55228,0 -1,0.44772 -1,1c0,0.55228 0.44772,1 1,1zM21,28h20c0.55228,0 1,-0.44772 1,-1c0,-0.55228 -0.44772,-1 -1,-1h-20c-0.55228,0 -1,0.44772 -1,1c0,0.55228 0.44772,1 1,1zM33,36h-12c-0.55228,0 -1,0.44772 -1,1c0,0.55228 0.44772,1 1,1h12c0.55228,0 1,-0.44772 1,-1c0,-0.55228 -0.44772,-1 -1,-1zM43,32h-22c-0.55228,0 -1,0.44772 -1,1c0,0.55228 0.44772,1 1,1h22c0.55228,0 1,-0.44772 1,-1c0,-0.55228 -0.44772,-1 -1,-1zM15,50c-0.55228,0 -1,0.44772 -1,1v2c0,0.55228 0.44772,1 1,1c0.55228,0 1,-0.44772 1,-1v-2c0,-0.55228 -0.44772,-1 -1,-1zM20,50c-0.55228,0 -1,0.44772 -1,1v2c0,0.55228 0.44772,1 1,1c0.55228,0 1,-0.44772 1,-1v-2c0,-0.55228 -0.44772,-1 -1,-1zM25,50c-0.55228,0 -1,0.44772 -1,1v2c0,0.55228 0.44772,1 1,1c0.55228,0 1,-0.44772 1,-1v-2c0,-0.55228 -0.44772,-1 -1,-1zM30,50c-0.55228,0 -1,0.44772 -1,1v2c0,0.55228 0.44772,1 1,1c0.55228,0 1,-0.44772 1,-1v-2c0,-0.55228 -0.44772,-1 -1,-1zM35,50c-0.55228,0 -1,0.44772 -1,1v2c0,0.55228 0.44772,1 1,1c0.55228,0 1,-0.44772 1,-1v-2c0,-0.55228 -0.44772,-1 -1,-1zM40,50c-0.55228,0 -1,0.44772 -1,1v2c0,0.55228 0.44772,1 1,1c0.55228,0 1,-0.44772 1,-1v-2c0,-0.55228 -0.44772,-1 -1,-1zM45,50c-0.55228,0 -1,0.44772 -1,1v2c0,0.55228 0.44772,1 1,1c0.55228,0 1,-0.44772 1,-1v-2c0,-0.55228 -0.44772,-1 -1,-1zM50,50c-0.55228,0 -1,0.44772 -1,1v2c0,0.55228 0.44772,1 1,1c0.55228,0 1,-0.44772 1,-1v-2c0,-0.55228 -0.44772,-1 -1,-1z" fill="#8d6c9f"></path></g></g><g fill="#042ef6" fill-rule="nonzero" stroke="none" stroke-width="1" stroke-linecap="butt" stroke-linejoin="miter" stroke-miterlimit="10" stroke-dasharray="" stroke-dashoffset="0" font-family="none" font-weight="none" font-size="none" text-anchor="none" style="mix-blend-mode: normal"><g><path d="M134.575,232.61l1.32,3.3c-1.58667,1.67333 -3.28,3.28 -5.08,4.82c-1.80667,1.54 -3.7,2.92667 -5.68,4.16c-1.98,1.23333 -4.07,2.2 -6.27,2.9c-2.2,0.70667 -4.48667,1.06 -6.86,1.06v0c-4.05333,0 -8.12333,-0.72667 -12.21,-2.18c-4.09333,-1.45333 -8.36333,-3.12333 -12.81,-5.01c-4.44,-1.89333 -9.10333,-3.72 -13.99,-5.48c-4.88667,-1.76 -10.19,-2.99333 -15.91,-3.7v0l3.3,-5.81c4.22667,-0.78667 8.38667,-0.98333 12.48,-0.59c4.09333,0.39333 8.14,1.05333 12.14,1.98c4.00667,0.92667 8.01,1.96 12.01,3.1c4.00667,1.14667 8.03333,2.07 12.08,2.77c4.04667,0.70667 8.18333,1.03667 12.41,0.99c4.22667,-0.04 8.58333,-0.81 13.07,-2.31zM38.875,174.93v0c0,-6.86667 0.96667,-13.22333 2.9,-19.07c1.94,-5.85333 4.8,-10.91333 8.58,-15.18c3.78667,-4.27333 8.45,-7.59667 13.99,-9.97c5.54667,-2.37333 11.92667,-3.56 19.14,-3.56v0c7.22,0 13.6,1.18667 19.14,3.56c5.54667,2.37333 10.19,5.69667 13.93,9.97c3.74,4.26667 6.57667,9.32667 8.51,15.18c1.94,5.84667 2.91,12.20333 2.91,19.07v0c0,6.86667 -0.97,13.22333 -2.91,19.07c-1.93333,5.85333 -4.77,10.91333 -8.51,15.18c-3.74,4.27333 -8.38333,7.59667 -13.93,9.97c-5.54,2.37333 -11.92,3.56 -19.14,3.56v0c-7.21333,0 -13.59333,-1.18667 -19.14,-3.56c-5.54,-2.37333 -10.20333,-5.69667 -13.99,-9.97c-3.78,-4.26667 -6.64,-9.32667 -8.58,-15.18c-1.93333,-5.84667 -2.9,-12.20333 -2.9,-19.07zM61.315,174.93v0c0,5.63333 0.44,10.84667 1.32,15.64c0.88,4.8 2.26667,8.93667 4.16,12.41c1.88667,3.47333 4.30667,6.2 7.26,8.18c2.94667,1.98 6.48667,2.97 10.62,2.97v0c3.78667,0 7,-0.99 9.64,-2.97c2.64,-1.98 4.79667,-4.70667 6.47,-8.18c1.66667,-3.47333 2.87667,-7.61 3.63,-12.41c0.74667,-4.79333 1.12,-10.00667 1.12,-15.64v0c0,-5.63333 -0.42,-10.84667 -1.26,-15.64c-0.83333,-4.8 -2.15333,-8.93667 -3.96,-12.41c-1.8,-3.47333 -4.17333,-6.2 -7.12,-8.18c-2.95333,-1.98 -6.54,-2.97 -10.76,-2.97v0c-4.04667,0 -7.43667,0.99 -10.17,2.97c-2.72667,1.98 -4.90333,4.70667 -6.53,8.18c-1.62667,3.47333 -2.77,7.61 -3.43,12.41c-0.66,4.79333 -0.99,10.00667 -0.99,15.64zM150.415,221.13h-14.52v-5.02c1.49333,-0.88 3.16333,-1.65 5.01,-2.31c1.85333,-0.66 3.79,-1.16333 5.81,-1.51v0v-74.72c-2.02,-0.44 -3.97667,-0.99 -5.87,-1.65c-1.89333,-0.66 -3.54333,-1.38333 -4.95,-2.17v0v-5.02h15.31c1.49333,0 3.34,-0.04333 5.54,-0.13c2.2,-0.08667 4.49,-0.19667 6.87,-0.33c2.37333,-0.13333 4.68333,-0.26667 6.93,-0.4c2.24,-0.13333 4.15333,-0.2 5.74,-0.2v0c7.65333,0 14.49667,1.01333 20.53,3.04c6.02667,2.02667 11.13,4.97333 15.31,8.84c4.18,3.87333 7.39,8.67 9.63,14.39c2.24667,5.72 3.37,12.32 3.37,19.8v0c0,7.30667 -1.05667,13.95 -3.17,19.93c-2.11333,5.98667 -5.28,11.09333 -9.5,15.32c-4.22667,4.22 -9.57333,7.49667 -16.04,9.83c-6.46667,2.33333 -14.05667,3.5 -22.77,3.5v0c-1.14667,0 -2.68667,-0.06667 -4.62,-0.2c-1.93333,-0.13333 -4,-0.26667 -6.2,-0.4c-2.2,-0.12667 -4.4,-0.25667 -6.6,-0.39c-2.2,-0.13333 -4.13667,-0.2 -5.81,-0.2zM174.565,136.25v0c-1.58,0 -3.16333,0.04667 -4.75,0.14c-1.58,0.08667 -2.94333,0.21667 -4.09,0.39v0v76.43c0.35333,0.08667 0.97,0.15333 1.85,0.2c0.88,0.04 1.78,0.08333 2.7,0.13c0.92667,0.04667 1.83,0.09 2.71,0.13c0.88,0.04667 1.54,0.07 1.98,0.07v0c5.10667,0 9.44,-1.05667 13,-3.17c3.56667,-2.11333 6.49333,-4.97333 8.78,-8.58c2.28667,-3.60667 3.96,-7.83 5.02,-12.67c1.05333,-4.84 1.58,-9.99 1.58,-15.45v0c0,-4.84 -0.55,-9.50333 -1.65,-13.99c-1.1,-4.48667 -2.79333,-8.49 -5.08,-12.01c-2.28667,-3.52 -5.25667,-6.33667 -8.91,-8.45c-3.65333,-2.11333 -8.03333,-3.17 -13.14,-3.17z"></path></g></g></svg>